# xmcd CD database file
#
# Track frame offsets:
#	150
#	21643
#	40042
#	55305
#	75409
#	91297
#	106786
#	127364
#	141225
#	158056
#	178260
#	197891
#	213144
#	228485
#	247129
#	267817
#
# Disc length: 3823 seconds
#
# Revision: 1
# Processed by: cddbd v1.5.2PL0 Copyright (c) Steve Scherf et al.
# Submitted via: jetAudio 5
#
DISCID=e40eed10
DTITLE=Various Artist - Totally Country Vol. 2
DYEAR=1900
DGENRE=
TTITLE0=Modern Day Bonnie and Clyde
TTITLE1=I Breathe In, I Breathe Out
TTITLE2=Just What I Do
TTITLE3=My Town
TTITLE4=That's When I Love You
TTITLE5=The Best Day
TTITLE6=But For The Grace of God
TTITLE7=Ten Rounds With Jose Cuervo
TTITLE8=Ol' Red
TTITLE9=Life Happened
TTITLE10=The One
TTITLE11=She Was
TTITLE12=Wrapped Around
TTITLE13=The Impossible
TTITLE14=I Don't Want You To Go
TTITLE15=Ashes By Now
EXTD=
EXTT0=
EXTT1=
EXTT2=
EXTT3=
EXTT4=
EXTT5=
EXTT6=
EXTT7=
EXTT8=
EXTT9=
EXTT10=
EXTT11=
EXTT12=
EXTT13=
EXTT14=
EXTT15=
PLAYORDER=
